<svg width="132" height="24" viewBox="0 0 132 24" fill="none" xmlns="http://www.w3.org/2000/svg">
<path d="M24 0C23.9535 5.19779 21.1596 9.98276 16.6555 12.5743L15.488 13.2458L15.8944 16.5352L11.1039 21.2985L10.4071 15.6569L8.24412 15.7367L8.34554 13.5804L2.70959 12.874L7.48853 8.0759L10.8128 8.45387C12.9263 3.52483 17.6843 0.25017 23.0408 0.0379518L23.9984 0H24Z" fill="#0D47A1"/>
<path d="M22.8836 1.05103C17.4172 1.72563 12.7939 5.41621 10.922 10.5993L10.8538 10.7883L10.7997 9.53587L7.90349 9.20903L5.06229 12.0957L9.46421 12.6657L10.5388 13.7407L11.3516 13.1165L11.9756 18.0471L13.0641 16.972L12.4401 12.3102L13.26 11.6565L13.8476 16.3183L14.4135 15.8025L13.8181 11.2135C17.8887 8.95653 21.0767 5.3891 22.8666 1.0913L22.8829 1.0518L22.8836 1.05103Z" fill="white"/>
<path d="M7.75716 16.2175L4.74642 17.3886L0 23.9999L6.61914 19.2614L7.75716 16.2175Z" fill="#0D47A1"/>
<path d="M6.50225 13.9336L4.91366 14.5517L2.40922 18.0401L5.90227 15.5399L6.50225 13.9336Z" fill="#0D47A1"/>
<path d="M10.0255 17.5212L8.43767 18.1393L5.93324 21.627L9.42551 19.1276L10.0255 17.5212Z" fill="#0D47A1"/>
<path d="M124.099 15.9914V8.00098H126.612V10.7981H129.487V8.00098H132V15.9914H129.487V13.0275H126.612V15.9914H124.099Z" fill="#151515"/>
<path d="M114.426 11.9962C114.426 11.1887 114.615 10.469 114.989 9.83992C115.364 9.21087 115.88 8.72518 116.544 8.37994C117.207 8.04054 117.965 7.86792 118.812 7.86792H118.846C120.026 7.86792 121.014 8.19123 121.809 8.84369C122.605 9.49614 123.063 10.3651 123.192 11.4403H120.589C120.472 11.0775 120.254 10.7835 119.949 10.5538C119.637 10.3256 119.268 10.2086 118.846 10.2086H118.812C118.272 10.2086 117.836 10.3754 117.497 10.7104C117.157 11.0498 116.985 11.4798 116.985 11.9977C116.985 12.5156 117.151 12.9559 117.492 13.2909C117.833 13.6259 118.272 13.7927 118.813 13.7927H118.847C119.27 13.7927 119.638 13.6757 119.95 13.4475C120.256 13.2192 120.474 12.9237 120.591 12.5609H123.193C123.065 13.6362 122.608 14.4993 121.811 15.1517C121.014 15.8042 120.028 16.1319 118.847 16.1319H118.813C117.984 16.1319 117.236 15.9593 116.574 15.6199C115.911 15.2805 115.387 14.7904 115.002 14.1599C114.618 13.5294 114.429 12.8067 114.429 11.9977L114.426 11.9962Z" fill="#151515"/>
<path d="M105.495 15.9914V8.00098H107.963L111.056 12.1015V8.00098H113.518V15.9914H111.056L107.963 11.7899V15.9914H105.495Z" fill="#151515"/>
<path d="M96.447 8.00098H98.9603V12.1234C98.9603 12.5857 99.0773 12.9646 99.3055 13.2601C99.5337 13.5556 99.8965 13.7063 100.387 13.7063H100.42C100.916 13.7063 101.279 13.5615 101.507 13.266C101.735 12.9705 101.847 12.5916 101.847 12.1234V8.00098H104.36V12.3531C104.36 13.5732 104.015 14.5094 103.318 15.156C102.622 15.8085 101.658 16.1318 100.422 16.1318H100.388C99.1504 16.1318 98.1879 15.8085 97.4915 15.156C96.7952 14.5094 96.4499 13.5732 96.4499 12.3531V8.00098H96.447Z" fill="#151515"/>
<path d="M87.3198 15.9914L89.4308 8.00098H93.9995L96.1061 15.9914H93.565L93.23 14.726H90.1886L89.8536 15.9914H87.3184H87.3198ZM90.7577 12.498H92.6521L92.0553 10.2085H91.3472L90.7562 12.498H90.7577Z" fill="#151515"/>
<path d="M80.3725 15.9914V8.00098H82.8858V13.7897H86.6411V15.9899H80.3725V15.9914Z" fill="#151515"/>
<path d="M68.716 15.9915V13.9024C68.716 13.2178 68.9223 12.6882 69.3348 12.3254C69.7474 11.9626 70.3823 11.6905 71.241 11.5062L72.7449 11.177C73.1955 11.0878 73.4193 10.8991 73.4193 10.6138C73.4193 10.2349 73.0901 10.0462 72.4391 10.0462H72.4055C71.7428 10.0462 71.4356 10.3358 71.4136 10.7542H68.8901C68.8901 10.4924 68.9179 10.2305 69.0467 9.84578C69.1754 9.46103 69.3524 9.11578 69.7152 8.75883C70.078 8.40773 70.5227 8.14588 71.2366 7.98496C71.5877 7.90743 71.9783 7.86792 72.4069 7.86792H72.4406C73.9503 7.87377 74.9422 8.34191 75.46 9.02655C75.8228 9.49468 75.9779 10.0125 75.9779 10.5919C75.9779 11.2765 75.7775 11.8061 75.3767 12.1689C74.9758 12.5361 74.3234 12.8257 73.4207 13.0378L71.7106 13.4328C71.3537 13.5104 71.1752 13.6669 71.1752 13.901H75.8609V15.99H68.7175L68.716 15.9915Z" fill="#151515"/>
<path d="M57.8129 15.9914V8.00098H64.32V10.1734H60.3248V10.9707H63.5402V13.0495H60.3248V13.8131H64.32V15.9914H57.8129Z" fill="#151515"/>
<path d="M51.6059 13.2778C51.6732 13.6786 52.1574 13.8907 52.965 13.8907H52.9986C53.8515 13.8907 54.2801 13.7298 54.2801 13.4006C54.2801 13.1505 54.0402 12.9779 53.5004 12.9779H52.2028C51.227 12.9779 50.4868 12.7716 49.9792 12.359C49.4671 11.9465 49.2097 11.3789 49.2097 10.6548C49.2097 9.8136 49.5388 8.9885 50.4019 8.44869C50.9535 8.09759 51.84 7.86938 52.9313 7.86938H53.0425C53.9334 7.86938 54.6868 8.03615 55.1769 8.28192C55.6669 8.52769 56.0575 8.88903 56.2638 9.22404C56.4701 9.55905 56.6032 9.96572 56.6486 10.2378C56.6647 10.3768 56.6764 10.5114 56.6764 10.6387H54.1528C54.1031 10.2759 53.7403 10.0257 52.9767 10.0257H52.9328C52.1589 10.0257 51.7683 10.1925 51.7683 10.5275C51.7683 10.8113 52.0024 10.9503 52.4763 10.9503H53.97C54.8945 10.9503 55.6084 11.1682 56.1044 11.6071C56.6003 12.046 56.8461 12.6268 56.8461 13.3568C56.8461 14.2155 56.5286 14.8884 55.8937 15.3843C55.2588 15.8803 54.2947 16.1304 53.0015 16.1304H52.807C51.9204 16.1304 51.1802 15.9798 50.6726 15.7515C50.1649 15.5292 49.77 15.1883 49.5476 14.8548C49.3194 14.5198 49.1746 14.097 49.1292 13.7737C49.1014 13.6128 49.0897 13.4504 49.0897 13.2778H51.6074H51.6059Z" fill="#151515"/>
<path d="M40.0167 15.9914L42.1277 8.00098H46.6963L48.8029 15.9914H46.2618L45.9268 14.726H42.8854L42.5504 15.9914H40.0152H40.0167ZM43.4545 12.498H45.349L44.7521 10.2085H44.0441L43.453 12.498H43.4545Z" fill="#151515"/>
<path d="M32 15.9914V8.00098H37.1816C37.8897 8.00098 38.4909 8.25113 38.9927 8.74706C39.4886 9.24298 39.7388 9.85009 39.7388 10.5581C39.7388 11.1097 39.5545 11.5836 39.1814 11.9845C39.5545 12.4073 39.7388 12.8929 39.7388 13.4445C39.7388 14.1525 39.4886 14.7479 38.9927 15.2438C38.4968 15.7398 37.8897 15.9899 37.1816 15.9899H32V15.9914ZM34.4577 11.0277H36.7866C36.9929 11.0277 37.1816 10.839 37.1816 10.6152C37.1816 10.3914 37.0031 10.2085 36.7866 10.2085H34.4577V11.0277ZM34.4577 13.7912H36.7471C36.987 13.7912 37.1816 13.5966 37.1816 13.345C37.1816 13.1226 36.9871 12.8988 36.7354 12.8988H34.4562V13.7897L34.4577 13.7912Z" fill="#151515"/>
</svg>
